# xmcd
#
# Track frame offsets:
#	150
#	18822
#	35757
#	45195
#	60045
#	85012
#	98160
#	108075
#	118590
#	132117
#	145210
#	160485
#	172762
#	190322
#	202367
#	217462
#	229395
#	245970
#	256302
#	269005
#	280727
#	295895
#	317505
#	330730
#	339672
#
# Disc length: 4682
#
# Revision: 2
# Processed by: cddbd v1.5.1PL0 Copyright (c) Steve Scherf et al.
# Submitted via: audiograbber 1.83.01
# Normalized: r1:DSETVAR1
#
DISCID=77124819
DTITLE=Various Artist - Megablues CD2
DYEAR=2001
DGENRE=Blues
TTITLE0=John Lee Hooker - Shake It Baby
TTITLE1=Albert King - My Babe
TTITLE2=Eric Clapton - Tribute To Elmore
TTITLE3=Elmore James - Everyday (I Have The Blues)
TTITLE4=Freddy King - Ain't No Sunshine
TTITLE5=Howlin' Wolf - Everybody In The Mood
TTITLE6=Jimmy Reed - Ain't That Lovin' You Baby
TTITLE7=Big Joe Williams - King's Highway
TTITLE8=James Cotton - Cotton Crop Blues
TTITLE9=Homesick James - My Baby's Sweet
TTITLE10=Muddy Waters - Country Blues
TTITLE11=Jimmy Rushing - Nobody Knows
TTITLE12=John Mayall and The Bluesbreakers - Telephone Blues
TTITLE13=Lonnie Brooks - In The Dark
TTITLE14=Albert Lee and Paul Williams - Water On My Fire
TTITLE15=Eddie Boyd - Five Long Years
TTITLE16=Billy Boy Arnold - Dirty Mother Fucker
TTITLE17=The All Stars Feat. Jeff Beck - Chuckles
TTITLE18=Junior Parker - Feelin' Good
TTITLE19=Joe Hill Louis - All We Gotta Go Sometime
TTITLE20=P.P. Arnold - It'll Never Happen Again
TTITLE21=Magic Slim and The Teardrops - Loving You
TTITLE22=Lazy Bill Lucas - I Had A Dream
TTITLE23=Memphis Slim - Steppin' Out
TTITLE24=Johnny Williams - Fat Mouth
EXTD=
EXTT0=
EXTT1=
EXTT2=
EXTT3=
EXTT4=
EXTT5=
EXTT6=
EXTT7=
EXTT8=
EXTT9=
EXTT10=
EXTT11=
EXTT12=
EXTT13=
EXTT14=
EXTT15=
EXTT16=
EXTT17=
EXTT18=
EXTT19=
EXTT20=
EXTT21=
EXTT22=
EXTT23=
EXTT24=
PLAYORDER=
